<?xml version="1.0" standalone="no"?>
<!DOCTYPE svg PUBLIC "-//W3C//DTD SVG 20010904//EN"
 "http://www.w3.org/TR/2001/REC-SVG-20010904/DTD/svg10.dtd">
<svg version="1.0" xmlns="http://www.w3.org/2000/svg"
 width="191.000000pt" height="66.000000pt" viewBox="0 0 191.000000 66.000000"
 preserveAspectRatio="xMidYMid meet">
<metadata>
Created by potrace 1.10, written by Peter Selinger 2001-2011
</metadata>
<g transform="translate(0.000000,66.000000) scale(0.100000,-0.100000)"
fill="#000000" stroke="none">
<path d="M63 442 l-63 -36 0 -72 0 -72 61 -36 61 -36 64 35 c60 34 64 38 64
72 0 30 -2 34 -14 23 -8 -6 -16 -20 -18 -31 -2 -12 -22 -31 -50 -46 l-47 -26
-48 30 c-47 29 -48 31 -51 85 l-3 56 53 30 53 31 45 -26 c53 -31 59 -39 52
-65 -3 -15 -1 -19 9 -16 8 2 15 18 17 34 2 24 -3 32 -30 48 -18 10 -46 27 -63
36 -30 18 -30 18 -92 -18z"/>
<path d="M78 402 c-16 -10 -28 -19 -28 -22 0 -3 17 -15 38 -27 33 -18 40 -19
57 -7 28 20 35 17 35 -15 0 -20 -8 -34 -27 -46 -24 -16 -28 -16 -52 -2 -15 9
-27 27 -29 41 -5 40 -34 34 -30 -6 2 -26 11 -37 43 -55 l41 -22 40 24 c34 20
41 29 39 52 -1 15 -3 38 -3 51 -2 26 -23 29 -55 7 -14 -8 -28 -11 -36 -6 -15
10 -6 32 12 30 25 -3 38 1 32 11 -9 15 -46 11 -77 -8z"/>
<path d="M303 404 c-9 -4 -13 -28 -13 -70 0 -59 2 -64 24 -70 38 -9 81 -1 81
16 0 10 -12 16 -32 18 -30 3 -33 6 -33 37 0 31 3 34 33 37 49 5 43 32 -8 35
-22 1 -46 0 -52 -3z"/>
<path d="M442 398 c-7 -7 -12 -35 -12 -63 0 -62 12 -75 65 -75 53 0 65 13 65
75 0 62 -12 75 -65 75 -23 0 -46 -5 -53 -12z m78 -63 c0 -19 -6 -35 -14 -38
-20 -8 -26 1 -26 38 0 37 6 46 26 38 8 -3 14 -19 14 -38z"/>
<path d="M612 398 c-7 -7 -12 -35 -12 -63 0 -62 12 -75 65 -75 53 0 65 13 65
75 0 62 -12 75 -65 75 -23 0 -46 -5 -53 -12z m73 -60 c-2 -30 -14 -50 -26 -43
-10 7 -12 68 -2 78 11 12 29 -11 28 -35z"/>
<path d="M770 335 c0 -73 1 -75 25 -75 21 0 25 5 25 31 0 24 4 30 18 27 12 -2
16 -11 14 -31 -3 -23 0 -27 22 -27 23 0 26 4 26 38 0 21 -5 43 -12 50 -9 9 -9
18 0 37 11 23 10 25 -11 25 -16 0 -28 -10 -40 -32 l-16 -33 0 33 c-1 27 -5 32
-26 32 -24 0 -25 -2 -25 -75z"/>
<path d="M951 396 c-7 -8 -11 -27 -9 -43 2 -23 8 -29 36 -31 43 -4 41 -22 -3
-22 -28 0 -35 -4 -35 -20 0 -17 7 -20 50 -20 44 0 52 3 62 26 15 32 1 58 -33
62 -42 6 -46 22 -6 22 30 0 37 4 37 20 0 17 -7 20 -44 20 -26 0 -48 -6 -55
-14z"/>
<path d="M1085 400 c-9 -15 4 -30 25 -30 17 0 18 -6 13 -55 -6 -54 -5 -55 21
-55 25 0 26 2 26 55 0 48 2 55 20 55 13 0 20 7 20 20 0 18 -7 20 -59 20 -33 0
-63 -4 -66 -10z"/>
<path d="M1240 379 c0 -17 9 -42 20 -56 11 -14 20 -34 20 -44 0 -14 7 -19 25
-19 17 0 25 6 25 18 0 9 9 28 20 42 11 14 20 40 20 58 0 28 -3 32 -26 32 -22
0 -25 -3 -21 -23 7 -26 -6 -52 -22 -43 -6 4 -11 20 -11 37 0 24 -4 29 -25 29
-21 0 -25 -5 -25 -31z"/>
<path d="M1410 335 l0 -75 60 0 60 0 0 40 c0 36 -2 40 -26 40 -21 0 -24 -4
-19 -20 5 -16 2 -20 -16 -20 -21 0 -21 3 -15 55 6 54 6 55 -19 55 -24 0 -25
-2 -25 -75z"/>
<path d="M1570 335 l0 -75 55 0 c48 0 55 2 55 20 0 16 -7 20 -35 20 -19 0 -35
5 -35 10 0 6 11 10 25 10 16 0 25 6 25 15 0 9 -9 15 -25 15 -14 0 -25 5 -25
10 0 6 16 10 35 10 28 0 35 4 35 20 0 18 -7 20 -55 20 l-55 0 0 -75z"/>
</g>
</svg>
